<svg id="LOGOS_-_Actual_Logos" data-name="LOGOS - Actual Logos" xmlns="http://www.w3.org/2000/svg" width="600" height="400" viewBox="0 0 600 400"><g id="Logos"><g id="Logo_1" data-name="Logo 1"><rect x="-1" y="-1" width="600" height="400" style="fill:none"/></g></g><path fill="#FFF" d="M317.44,160.26a13.9,13.9,0,0,0,7.25-2.85,23.25,23.25,0,0,0,5.83-6.49,29.65,29.65,0,0,0,3.66-8.91,31.58,31.58,0,0,0,.72-10.1q-.56-6.45-4.43-10a11.59,11.59,0,0,0-9.24-3.11,15,15,0,0,0-7.62,2.87,22.67,22.67,0,0,0-6,6.51,33,33,0,0,0-3.79,8.79,27.81,27.81,0,0,0-.88,9.72q.6,7,4.85,10.52A12.75,12.75,0,0,0,317.44,160.26Z"/><path fill="#FFF" d="M519.51,225.81a5,5,0,0,0-3.67-1.25,3.85,3.85,0,0,0-2.14.84,8.83,8.83,0,0,0-1.37,1.29,5,5,0,0,0-1.06,1.91,52.56,52.56,0,0,1-9,12.76A58.6,58.6,0,0,1,491,250.54a32.9,32.9,0,0,1-15.29,5.1,21,21,0,0,1-15.67-4.89q-6.9-5.66-7.89-17.3a31.92,31.92,0,0,0,3.72.46,21.75,21.75,0,0,0,5.69.29q11.46-1,18.79-5.92A38.57,38.57,0,0,0,491.7,217a39.18,39.18,0,0,0,5.38-13.1,40.89,40.89,0,0,0,1-11.42,26,26,0,0,0-2.94-9.9,27.94,27.94,0,0,0-6.49-8.17,30,30,0,0,0-9.07-5.33,24.08,24.08,0,0,0-10.7-1.42q-8.06.69-16.8,6.14a59.05,59.05,0,0,0-15.81,14.78,73.65,73.65,0,0,0-11.14,21.94,68.71,68.71,0,0,0-2.8,27.33,40.82,40.82,0,0,0,.59,4.22A57.77,57.77,0,0,1,417,249.6a58.51,58.51,0,0,1-11,9,32,32,0,0,1-14.82,4.93,24.41,24.41,0,0,1-17.77-5q-7.52-5.85-8.68-19.31a64.47,64.47,0,0,1,.93-17.66,71.52,71.52,0,0,1,5-16.19,40.53,40.53,0,0,1,7.93-12q4.64-4.71,10-5.17a7.73,7.73,0,0,1,5.15,1.25,4.86,4.86,0,0,1,2.4,3.57,4.52,4.52,0,0,1-1.29,3.63c-1,1-2,2.17-3.15,3.4a24.23,24.23,0,0,0-3,4,9.19,9.19,0,0,0-1,5.56,9.78,9.78,0,0,0,4.44,7.3,13,13,0,0,0,8.94,2.48,8.67,8.67,0,0,0,4.85-2.24,22.07,22.07,0,0,0,4.36-5.07,24.81,24.81,0,0,0,3-6.64,19.22,19.22,0,0,0,.75-7,22.48,22.48,0,0,0-2.72-8.75A26.52,26.52,0,0,0,395.93,177,29.77,29.77,0,0,0,384,175.86a40.66,40.66,0,0,0-18.59,6.82,64.56,64.56,0,0,0-16.49,15.49,73.27,73.27,0,0,0-11.15,21.68A62.54,62.54,0,0,0,334.92,245,48.2,48.2,0,0,0,336.81,255c-.19.24-.35.53-.53.77a44.14,44.14,0,0,1-7.75,8.48,16.62,16.62,0,0,1-9.36,4.2,6.85,6.85,0,0,1-6-2.22,11.47,11.47,0,0,1-2.69-6.93,77.73,77.73,0,0,1,.52-18.15q1.34-8.85,3.22-16.82t3.5-15a42.32,42.32,0,0,0,1.09-13c-.09-1-.86-2.31-2.3-3.84a30.09,30.09,0,0,0-5.3-4.36,40.49,40.49,0,0,0-6.7-3.59,13.34,13.34,0,0,0-6.26-1.28A5.89,5.89,0,0,0,294.5,185a10,10,0,0,0-2.39,3.72q-1.73,5.63-4.23,15t-4.57,19.68q-2.07,10.34-3.41,20.35c-.39,2.89-.63,5.55-.77,8.06a56,56,0,0,1-5.86,9.45,43.51,43.51,0,0,1-7.75,8.48,16.69,16.69,0,0,1-9.35,4.2q-7.56.65-12.08-4.69t-5.31-14.39c-.19-2.24-.31-4.53-.34-6.87a61.61,61.61,0,0,1,.18-6.4q.19-3.41.42-6.55A223.07,223.07,0,0,1,242,212.24c42.83-26.86,47.82-76.1,47.82-76.1v0a38.74,38.74,0,0,0,.8-10.27,17.24,17.24,0,0,0-2.32-7,27,27,0,0,0-5.11-6.47,26.05,26.05,0,0,0-6.92-4.61,15.76,15.76,0,0,0-8-1.39q-8.79.77-16.85,8.49A87.25,87.25,0,0,0,236.3,135.1a171,171,0,0,0-12.46,28,304.8,304.8,0,0,0-9.16,31.93c-1.39,6.06-2.52,12.09-3.44,18.08a74.81,74.81,0,0,1-17,4.14q-2.08-4-4.52-8-4.58-7.41-9.88-14.76T170,179.81A119.19,119.19,0,0,1,162,164.6a51,51,0,0,1-4.09-16.07,30.45,30.45,0,0,1,15.18-29.18,27.22,27.22,0,0,1,11.49-3.56,13,13,0,0,1,8.91,2.06c2.36,1.68,3.69,4.31,4,7.87A28.07,28.07,0,0,1,195.22,139a81.11,81.11,0,0,1-5.88,11.68,33.86,33.86,0,0,0-2.23,4.1,5.62,5.62,0,0,0-.39,2.59,4,4,0,0,0,1.45,2.57,3.85,3.85,0,0,0,3.05,1.08q3.17-.27,8.73-4.25a59.91,59.91,0,0,0,10.69-10.08,65.24,65.24,0,0,0,8.67-13.41,27.48,27.48,0,0,0,2.93-14.53,17.15,17.15,0,0,0-3.65-9.51,22.42,22.42,0,0,0-8-6.17A37.73,37.73,0,0,0,199.46,100a60.75,60.75,0,0,0-13.05-.22,73.64,73.64,0,0,0-22,5.54,69.38,69.38,0,0,0-19.6,12.2,57.32,57.32,0,0,0-13.58,17.87,42.72,42.72,0,0,0-3.93,22.82,60.23,60.23,0,0,0,7.66,24.52q6.54,11.7,14,22.49c2.13,3.09,4.17,6.13,6.18,9.16-16.06-3.12-31.92-6.69-45.33-2.27C91.85,218,86.15,226.93,81.29,237.8s-2.65,26.73,2.11,35.67,13.49,20.1,35.61,25.06,47.88.57,65.77-13.37,17.64-37.34,16.94-45.35a46.73,46.73,0,0,0-1.41-8.06,65.49,65.49,0,0,0,9.05-2.57,163.45,163.45,0,0,0-.2,27.19,41.71,41.71,0,0,0,4.46,16A37.32,37.32,0,0,0,222.86,284a34.38,34.38,0,0,0,12.5,6.61A39,39,0,0,0,249.62,292a30.64,30.64,0,0,0,16.29-6.36,70.31,70.31,0,0,0,12.36-12c1.05-1.33,2-2.82,3-4.23a25.59,25.59,0,0,0,8.24,11.2q9.22,7.15,23.14,5.95a30.61,30.61,0,0,0,16.29-6.36,70.38,70.38,0,0,0,12.37-12c.49-.62.9-1.34,1.38-2a33.81,33.81,0,0,0,9,8.11,41.73,41.73,0,0,0,14.86,5.49,62.12,62.12,0,0,0,15.93.7,53.11,53.11,0,0,0,22.88-6.92,83.4,83.4,0,0,0,16.27-12.35,85.74,85.74,0,0,0,6-7,36,36,0,0,0,9,9.94,40.74,40.74,0,0,0,14.11,6.72,49.76,49.76,0,0,0,17.33,1.37q13.9-1.2,23.62-7a77.13,77.13,0,0,0,16-12.33,65.26,65.26,0,0,0,12-17.19c.25-.89.51-1.7.77-2.42s.5-1.38.69-2a5.16,5.16,0,0,0,.2-2A4.91,4.91,0,0,0,519.51,225.81Zm-65.62-15.17A68.59,68.59,0,0,1,459,196.92a47.1,47.1,0,0,1,7.74-11.35q4.5-4.81,9.63-5.27,4.39-.37,4.84,4.8a27.47,27.47,0,0,1-1.57,10.29,50.29,50.29,0,0,1-5.71,12.09,42,42,0,0,1-9.32,10.31,22.2,22.2,0,0,1-12.11,5A37.55,37.55,0,0,1,453.89,210.64ZM257.23,154a146.79,146.79,0,0,1,9.67-21.93q4.78-8.49,8.21-8.79,2.92-.25,3.24,3.37.34,3.87-1.25,11c-.88,3.93-2.1,8.3-3.52,12.92-9,23.53-18,35.92-28.39,44.28q1.23-5.46,2.71-10.91Q252.37,167.45,257.23,154ZM163.61,271.11c-5.19,6.37-22.87,12.62-33.91,8.86s-14.93-10.12-17.7-16.24-5.57-23.9,6.54-36c9.94-9.91,32-3.32,45.43.54a43.92,43.92,0,0,1,6.1,18Q171.39,261.55,163.61,271.11Z"/></svg>